<svg xmlns="http://www.w3.org/2000/svg" version="1.1" xmlns:xlink="http://www.w3.org/1999/xlink" width="612px" height="707px"><svg xmlns="http://www.w3.org/2000/svg" version="1.1" xmlns:xlink="http://www.w3.org/1999/xlink" width="612px" height="707px"><svg width="612px" height="707px" enable-background="new 0.083 42.123 611.834 706.506" version="1.1" viewBox=".083 42.1 612 707" xml:space="preserve" xmlns="http://www.w3.org/2000/svg" xmlns:cc="http://creativecommons.org/ns#" xmlns:dc="http://purl.org/dc/elements/1.1/" xmlns:rdf="http://www.w3.org/1999/02/22-rdf-syntax-ns#"><metadata><rdf:RDF><cc:Work rdf:about=""><dc:format>image/svg+xml</dc:format><dc:type rdf:resource="http://purl.org/dc/dcmitype/StillImage"></dc:type></cc:Work></rdf:RDF></metadata>
<polygon id="fill" points="612 572 306 749 0.083 572 0.083 219 306 42.1 612 219" fill="#121212"></polygon>
<linearGradient id="gradient_1_" x1="306" x2="306" y1="405" y2="134" gradientTransform="translate(0 -80)" gradientUnits="userSpaceOnUse">
	<stop stop-color="#fff" stop-opacity="0" offset="0"></stop>
	<stop stop-color="#fff" offset="1"></stop>
</linearGradient>
<path id="gradient" d="m306 54.4-246 143c37 74.5 133 128 246 128 113 0 210-53.5 247-128l-247-142z" fill="url(#gradient_1_)" opacity=".2"></path><g>

<path id="outline" d="m588 205-282-163-282 163-24.4 14.1v353l24.4 14.1 282 163 282-163 24.4-14.1v-353l-24.4-14.1zm0 354-282 163-282-163v-325l282-163 282 163v325z" fill="#f1ec40"></path>









<text x="305.96408" y="539.8042" display="none" fill="#b3f3cd" font-family="Nunito" font-size="66.7px" font-weight="600" letter-spacing="2.63px" stroke-linejoin="round" stroke-width="13" text-align="center" text-anchor="middle" word-spacing="0px" style="line-height:1" xml:space="preserve"><tspan x="305.96408" y="539.8042">astronomy</tspan><tspan x="307.27908" y="608.77435">engine</tspan></text><path d="m439 451c-70-13-178-69-251-130-27.9-23.4-52.9-52.3-59-67.9-2.92-7.57-2.62-15 0.726-18 4.02-3.62 5.03-4.03 13.1-5.33 14.5-2.34 44 3 74.1 13.4 16 5.51 38.1 14.3 39.6 15.7 0.555 0.502-1.26 2.48-4.03 4.4l-5.03 3.49-13.5-3.41c-18.3-4.64-33.1-4.91-41.4-0.766-24.9 12.4-4.51 47.6 52.1 89.6 53.4 39.7 123 70.9 159 70.9 11.5 0 17.1-1.88 22.1-7.45 3.65-4.04 4.18-5.43 4.18-11-1e-3 -10.9-7.14-23.3-22.9-39.9l-8.33-8.77 1.61-12.8 16.3 13c20.2 16.1 47.9 43.8 56.7 56.5 15.4 22.5 16 35.3 1.74 39.2-6.19 1.72-25.5 1.44-36.1-0.511zm-145-28.5c-24.9-4.15-49-21.8-59.9-43.6-2.42-4.9-4.4-9.3-4.4-9.77 0-0.473 3.12 1.25 6.94 3.83 17.6 11.9 52 32.1 72.7 42.6l12.7 6.44-6.04 0.849c-7.86 1.11-14.2 1.03-22-0.28zm-137-3.19c-8.02-4.05-11.1-14.6-6.76-23.1 2.63-5.08 11.2-9.16 17-8.08 16.3 3.06 18.7 25.1 3.36 31.6-5.16 2.2-8.54 2.08-13.6-0.459zm192-23.6c-13.8-5.68-34.9-16.1-50.1-24.7-14.8-8.39-49.5-31.7-60.8-40.8-9.76-7.88-10.1-8.28-9.41-12.3 0.374-2.31 2.99-8.88 5.81-14.6 6.88-14 21.5-28.9 34.8-35.5 32.7-16.3 68.9-10.6 94.2 14.8 9.37 9.45 15.8 20.1 20.1 33.2 4.34 13.2 4.56 32.8 0.546 47-3.47 12.3-9.67 24.1-16.8 31.9l-5.66 6.18zm106-105c-11.9-2.13-19.3-10.9-19.3-22.9 0-14.4 10.1-23.7 24.8-22.7 5.92 0.377 8.44 1.2 12 3.89 8.31 6.34 11.6 15.4 9.13 24.7-1.34 4.98-6.95 12.5-10.9 14.6-3.73 2-11.4 3.16-15.7 2.39zm-120-79.4c-1.1-1.21-2-3.93-2-6.04 0-3.47-0.349-3.83-3.7-3.83-5.57 0-8.37-1.98-8.37-5.93 0-4.25 1.81-5.83 7.25-6.34 3.85-0.365 4.26-0.772 4.62-4.62 0.495-5.22 2.09-7.25 5.7-7.25 3.98 0 6.58 3.14 6.58 7.93 0 3.99 0.168 4.14 4.59 4.14 5.22 0 7.48 1.69 7.48 5.59 0 3.89-3.18 6.48-7.93 6.48-3.91 0-4.14 0.23-4.14 4.14 0 7.04-5.87 10.4-10.1 5.73z" fill="#f1ec40" stroke-width="1.21"></path></g><path d="m399 609q-5.33 0-9.2-2-3.8-2.07-5.93-5.8-2.07-3.8-2.07-9 0-5.07 2.07-8.87 2.07-3.8 5.67-5.93 3.6-2.13 8.2-2.13 3.4 0 6.07 1.13 2.67 1.07 4.53 3.2 1.93 2.07 2.87 5.07 1 3 1 6.73 0 1.13-0.667 1.73-0.667 0.533-2 0.533h-22.4v-4.13h20.5l-1.13 0.933q0-3.33-1-5.67-0.933-2.33-2.87-3.53-1.87-1.27-4.67-1.27-3.13 0-5.33 1.47-2.13 1.47-3.27 4.07-1.13 2.6-1.13 6.07v0.4q0 5.87 2.73 8.87 2.8 2.93 8.07 2.93 2 0 4.2-0.533 2.27-0.533 4.27-1.8 1.13-0.667 2-0.6 0.933 0.0667 1.47 0.6 0.6 0.533 0.733 1.33 0.133 0.8-0.267 1.67-0.4 0.8-1.4 1.47-2.27 1.53-5.27 2.33-3 0.733-5.8 0.733zm-53-0.133q-1.6 0-2.47-0.867-0.867-0.933-0.867-2.53v-26.7q0-1.67 0.867-2.53 0.867-0.867 2.4-0.867 1.6 0 2.4 0.867 0.867 0.867 0.867 2.53v5.2l-0.733-1.2q1.47-3.73 4.6-5.6 3.13-1.93 7.2-1.93 3.87 0 6.4 1.47 2.6 1.4 3.87 4.33 1.27 2.87 1.27 7.27v17.1q0 1.6-0.867 2.53-0.867 0.867-2.47 0.867-1.67 0-2.53-0.867-0.867-0.933-0.867-2.53v-16.7q0-4.2-1.67-6.13-1.6-1.93-5.07-1.93-4.07 0-6.53 2.53-2.4 2.53-2.4 6.8v15.5q0 3.4-3.4 3.4zm-18.8-0.0667q-1.6 0-2.47-0.933-0.867-1-0.867-2.73v-26q0-1.73 0.867-2.67 0.867-0.933 2.47-0.933t2.47 0.933q0.933 0.933 0.933 2.67v26q0 1.73-0.867 2.73-0.867 0.933-2.53 0.933zm0-40.2q-2 0-3.13-1-1.07-1-1.07-2.8 0-1.87 1.07-2.8 1.13-1 3.13-1t3.07 1q1.13 0.933 1.13 2.8 0 1.8-1.13 2.8-1.07 1-3.07 1zm-30.8 52.4q-3.6 0-7-0.733-3.33-0.733-6.07-2.4-1-0.533-1.33-1.33-0.333-0.733-0.2-1.53 0.2-0.8 0.733-1.4 0.533-0.6 1.27-0.8 0.8-0.2 1.67 0.267 2.93 1.6 5.53 2.13 2.67 0.6 4.93 0.6 4.67 0 7-2.4 2.33-2.33 2.33-6.93v-6.8h0.6q-1 3.67-4.2 5.8-3.2 2.13-7.4 2.13-4.4 0-7.67-2-3.27-2.07-5.07-5.67-1.8-3.67-1.8-8.53 0-3.67 1-6.6 1.07-2.93 2.93-5.07 1.93-2.13 4.6-3.27 2.73-1.2 6-1.2 4.27 0 7.4 2.13 3.2 2.13 4.13 5.8l-0.667 1.13v-5.53q0-1.67 0.867-2.53 0.933-0.867 2.47-0.867 1.6 0 2.47 0.867 0.867 0.867 0.867 2.53v26.9q0 7.6-3.93 11.5t-11.5 3.87zm-0.533-18.7q2.93 0 5-1.33 2.07-1.33 3.2-3.8 1.13-2.47 1.13-5.8 0-5-2.53-7.93-2.47-2.93-6.8-2.93-2.87 0-4.93 1.33-2.07 1.33-3.27 3.8-1.13 2.4-1.13 5.73 0 5.07 2.53 8 2.53 2.93 6.8 2.93zm-51.9 6.53q-1.6 0-2.47-0.867-0.867-0.933-0.867-2.53v-26.7q0-1.67 0.867-2.53 0.867-0.867 2.4-0.867 1.6 0 2.4 0.867 0.867 0.867 0.867 2.53v5.2l-0.733-1.2q1.47-3.73 4.6-5.6 3.13-1.93 7.2-1.93 3.87 0 6.4 1.47 2.6 1.4 3.87 4.33 1.27 2.87 1.27 7.27v17.1q0 1.6-0.867 2.53-0.867 0.867-2.47 0.867-1.67 0-2.53-0.867-0.867-0.933-0.867-2.53v-16.7q0-4.2-1.67-6.13-1.6-1.93-5.07-1.93-4.07 0-6.53 2.53-2.4 2.53-2.4 6.8v15.5q0 3.4-3.4 3.4zm-26.5 0.133q-5.33 0-9.2-2-3.8-2.07-5.93-5.8-2.07-3.8-2.07-9 0-5.07 2.07-8.87 2.07-3.8 5.67-5.93 3.6-2.13 8.2-2.13 3.4 0 6.07 1.13 2.67 1.07 4.53 3.2 1.93 2.07 2.87 5.07 1 3 1 6.73 0 1.13-0.667 1.73-0.667 0.533-2 0.533h-22.4v-4.13h20.5l-1.13 0.933q0-3.33-1-5.67-0.933-2.33-2.87-3.53-1.87-1.27-4.67-1.27-3.13 0-5.33 1.47-2.13 1.47-3.27 4.07-1.13 2.6-1.13 6.07v0.4q0 5.87 2.73 8.87 2.8 2.93 8.07 2.93 2 0 4.2-0.533 2.27-0.533 4.27-1.8 1.13-0.667 2-0.6 0.933 0.0667 1.47 0.6 0.6 0.533 0.733 1.33 0.133 0.8-0.267 1.67-0.4 0.8-1.4 1.47-2.27 1.53-5.27 2.33-3 0.733-5.8 0.733zm237-57.1q-1.2 0-2-0.667-0.733-0.6-0.867-1.67-0.0667-1 0.4-2.2l4.53-10.2v2.87l-12.5-29q-0.467-1.2-0.333-2.27 0.133-1.07 1-1.67 0.867-0.667 2.33-0.667 1.27 0 2 0.6t1.33 2.07l10.1 24.9h-1.87l10.2-24.9q0.6-1.53 1.4-2.07 0.8-0.6 2.2-0.6 1.2 0 1.87 0.667 0.733 0.6 0.867 1.67 0.2 1-0.333 2.2l-16.7 38.3q-0.667 1.53-1.53 2.07-0.8 0.533-2.13 0.533zm-64.2-12q-1.6 0-2.47-0.867-0.867-0.933-0.867-2.53v-26.7q0-1.67 0.867-2.53t2.4-0.867q1.6 0 2.4 0.867 0.867 0.867 0.867 2.53v5.47l-0.733-1.47q1.33-3.53 4.13-5.53t6.73-2q4.07 0 6.6 1.93 2.53 1.93 3.47 5.93h-0.933q1.27-3.67 4.33-5.73 3.07-2.13 7.13-2.13 3.73 0 6.13 1.47 2.4 1.4 3.6 4.33 1.2 2.87 1.2 7.27v17.1q0 1.6-0.933 2.53-0.867 0.867-2.47 0.867-1.6 0-2.47-0.867-0.867-0.933-0.867-2.53v-16.8q0-4.13-1.47-6.07-1.4-1.93-4.67-1.93-3.67 0-5.8 2.53-2.13 2.53-2.13 7v15.3q0 1.6-0.867 2.53-0.867 0.867-2.47 0.867t-2.53-0.867q-0.867-0.933-0.867-2.53v-16.8q0-4.13-1.4-6.07-1.4-1.93-4.67-1.93-3.67 0-5.8 2.53-2.07 2.53-2.07 7v15.3q0 3.4-3.4 3.4zm-29.6 0.133q-4.93 0-8.53-2.07-3.53-2.07-5.53-5.87t-2-8.93q0-3.93 1.13-7 1.13-3.07 3.2-5.27 2.13-2.27 5.07-3.4 3-1.2 6.67-1.2 4.87 0 8.4 2.07 3.6 2.07 5.6 5.87 2 3.73 2 8.93 0 3.87-1.13 7-1.13 3.13-3.27 5.33-2.07 2.2-5.07 3.4-2.93 1.13-6.53 1.13zm0-5.2q2.73 0 4.8-1.33 2.07-1.33 3.2-3.93 1.2-2.6 1.2-6.4 0-5.73-2.53-8.67-2.53-2.93-6.67-2.93-2.8 0-4.87 1.33-2.07 1.27-3.27 3.87-1.13 2.6-1.13 6.4 0 5.67 2.53 8.67 2.53 3 6.73 3zm-51.8 5.07q-1.6 0-2.47-0.867-0.867-0.933-0.867-2.53v-26.7q0-1.67 0.867-2.53 0.867-0.867 2.4-0.867 1.6 0 2.4 0.867 0.867 0.867 0.867 2.53v5.2l-0.733-1.2q1.47-3.73 4.6-5.6 3.13-1.93 7.2-1.93 3.87 0 6.4 1.47 2.6 1.4 3.87 4.33 1.27 2.87 1.27 7.27v17.1q0 1.6-0.867 2.53-0.867 0.867-2.47 0.867-1.67 0-2.53-0.867-0.867-0.933-0.867-2.53v-16.7q0-4.2-1.67-6.13-1.6-1.93-5.07-1.93-4.07 0-6.53 2.53-2.4 2.53-2.4 6.8v15.5q0 3.4-3.4 3.4zm-29.5 0.133q-4.93 0-8.53-2.07-3.53-2.07-5.53-5.87-2-3.8-2-8.93 0-3.93 1.13-7 1.13-3.07 3.2-5.27 2.13-2.27 5.07-3.4 3-1.2 6.67-1.2 4.87 0 8.4 2.07 3.6 2.07 5.6 5.87 2 3.73 2 8.93 0 3.87-1.13 7-1.13 3.13-3.27 5.33-2.07 2.2-5.07 3.4-2.93 1.13-6.53 1.13zm0-5.2q2.73 0 4.8-1.33 2.07-1.33 3.2-3.93 1.2-2.6 1.2-6.4 0-5.73-2.53-8.67-2.53-2.93-6.67-2.93-2.8 0-4.87 1.33-2.07 1.27-3.27 3.87-1.13 2.6-1.13 6.4 0 5.67 2.53 8.67 2.53 3 6.73 3zm-37.8 5.07q-1.67 0-2.53-0.867-0.867-0.933-0.867-2.53v-26.7q0-1.67 0.867-2.53t2.4-0.867q1.6 0 2.4 0.867 0.867 0.867 0.867 2.53v4.87h-0.667q1.07-4 3.93-6.07 2.87-2.07 7.33-2.4 1.2-0.0667 1.87 0.6 0.733 0.667 0.8 2.07 0.133 1.4-0.6 2.27-0.733 0.8-2.27 0.933l-1.27 0.133q-4.33 0.4-6.6 2.73-2.27 2.33-2.27 6.4v15.1q0 1.6-0.867 2.53-0.8 0.867-2.53 0.867zm-16.5 0.133q-4 0-6.73-1.4-2.73-1.4-4.07-4.13-1.33-2.73-1.33-6.67v-15.7h-4q-1.33 0-2.07-0.667-0.733-0.733-0.733-1.93 0-1.27 0.733-1.93 0.733-0.667 2.07-0.667h4v-6.87q0-1.67 0.867-2.53 0.933-0.867 2.53-0.867t2.47 0.867q0.867 0.867 0.867 2.53v6.87h7.8q1.33 0 2.07 0.667 0.733 0.667 0.733 1.93 0 1.2-0.733 1.93-0.733 0.667-2.07 0.667h-7.8v15.2q0 3.53 1.47 5.33 1.53 1.8 4.93 1.8 1.2 0 2.07-0.2 0.933-0.267 1.53-0.333 0.733 0 1.2 0.533 0.467 0.467 0.467 1.87 0 1-0.4 1.87-0.333 0.867-1.27 1.13-0.8 0.267-2.2 0.467-1.33 0.267-2.4 0.267zm-37 0q-2.93 0-6.07-0.667-3.07-0.667-5.67-2.27-0.867-0.6-1.2-1.33-0.333-0.733-0.267-1.47 0.133-0.8 0.6-1.33 0.533-0.6 1.27-0.733 0.8-0.133 1.67 0.333 2.6 1.47 5 2.07 2.4 0.533 4.73 0.533 3.53 0 5.33-1.27 1.8-1.27 1.8-3.4 0-1.73-1.2-2.67-1.2-1-3.6-1.53l-6.33-1.27q-4.13-0.867-6.27-3.07-2.13-2.2-2.13-5.6 0-3.07 1.67-5.33 1.67-2.27 4.67-3.47 3-1.27 6.93-1.27 2.93 0 5.53 0.733 2.6 0.733 4.8 2.2 0.867 0.467 1.13 1.27 0.267 0.733 0.0667 1.47-0.133 0.733-0.667 1.33-0.533 0.533-1.33 0.667-0.733 0.0667-1.67-0.4-2-1.27-4-1.8-1.93-0.533-3.87-0.533-3.53 0-5.33 1.33-1.73 1.27-1.73 3.47 0 1.67 1.07 2.73 1.07 1.07 3.33 1.53l6.33 1.27q4.33 0.867 6.53 2.93 2.27 2.07 2.27 5.6 0 4.6-3.67 7.27t-9.73 2.67zm-39.4 0q-3.4 0-6.13-1.33-2.67-1.33-4.2-3.6-1.53-2.27-1.53-5.13 0-3.6 1.8-5.67 1.87-2.13 6.07-3 4.27-0.933 11.5-0.933h3.13v4.13h-3.07q-4.8 0-7.6 0.467-2.8 0.467-4 1.6-1.13 1.07-1.13 3 0 2.53 1.73 4.13 1.73 1.53 4.8 1.53 2.47 0 4.33-1.13 1.87-1.2 2.93-3.2 1.13-2 1.13-4.6v-7.67q0-3.8-1.6-5.47-1.6-1.67-5.27-1.67-2.13 0-4.47 0.533-2.27 0.533-4.73 1.8-1.13 0.533-1.93 0.333t-1.27-0.867q-0.467-0.733-0.533-1.53 0-0.867 0.4-1.67 0.467-0.8 1.53-1.2 2.93-1.4 5.8-2 2.87-0.6 5.4-0.6 4.47 0 7.33 1.4 2.93 1.4 4.33 4.27t1.4 7.4v17.1q0 1.6-0.8 2.53-0.8 0.867-2.33 0.867-1.47 0-2.33-0.867-0.867-0.933-0.867-2.53v-4.33h0.6q-0.533 2.47-2 4.27-1.4 1.73-3.53 2.67-2.13 0.933-4.87 0.933z" fill="#b3f3cd" stroke-linejoin="round" stroke-width="13"></path></svg></svg><style>@media (prefers-color-scheme: light) { :root { filter: none; } }
@media (prefers-color-scheme: dark) { :root { filter: none; } }
</style></svg>